<svg width="40" height="40" viewBox="0 0 40 40" fill="none" xmlns="http://www.w3.org/2000/svg">
<g clip-path="url(#clip0_1722_1012)">
<path d="M37.5747 38.7491H36.0529V33.3156C36.0529 33.1655 35.999 33.0204 35.9008 32.9068L34.3164 31.072C34.1976 30.9344 34.0248 30.8554 33.8431 30.8554H31.114C29.1306 28.7839 26.564 28.7778 26.4605 28.7778H23.3275V26.882C23.3275 26.849 23.3241 26.8167 23.3192 26.7851C25.3253 25.9562 26.5932 24.5734 27.3653 23.3746C27.8902 22.5595 28.2378 21.7578 28.4638 21.1066C29.0026 22.0811 29.7194 22.77 30.6085 23.1636C31.2176 23.4332 31.8436 23.5337 32.4388 23.5337C34.1323 23.5336 35.5748 22.7199 35.6556 22.6735C35.919 22.5222 36.039 22.2029 35.9355 21.9174C35.8319 21.6319 35.5416 21.4609 35.2426 21.5141C35.2137 21.5185 34.5304 21.615 34.0375 21.0697C33.0207 19.9447 33.5452 17.1445 33.9484 15.5754C35.3782 10.0111 34.9533 4.86135 32.8396 2.13589C31.7561 0.738509 30.2572 0 28.505 0C26.5607 0 25.0766 0.524195 24.0941 1.55816C23.4008 2.28766 23.1118 3.1194 22.9923 3.73007C22.0907 3.46964 21.0995 3.33638 20.0196 3.33638C15.5394 3.33638 13.3566 5.69476 12.3145 7.67329C11.2045 9.78066 11.1448 11.8657 11.1428 11.9534C11.1427 11.9596 11.1426 11.9658 11.1427 11.9719C11.1427 11.9733 11.1427 11.9744 11.1427 11.9757V14.0064C10.741 14.0344 10.2427 14.1392 9.84893 14.446C9.49343 14.7231 9.28012 15.1188 9.232 15.5904C9.16887 16.2099 9.11751 17.7567 10.0029 18.7371C10.3098 19.0767 10.6973 19.3045 11.1427 19.4113V19.542C11.1427 19.572 11.1448 19.602 11.1492 19.6317C11.1601 19.7073 11.4316 21.5058 12.6352 23.3746C13.4072 24.5734 14.6751 25.9561 16.6812 26.7851C16.6763 26.8167 16.673 26.849 16.673 26.882V28.7778H13.5443C13.4419 28.7769 10.9701 28.7821 9.00284 30.7354C7.45936 32.2678 6.67674 34.5329 6.67674 37.4677V38.7491H2.42572C2.08032 38.7491 1.80029 39.0291 1.80029 39.3746C1.80029 39.72 2.08032 40 2.42572 40H37.5747C37.9201 40 38.2001 39.72 38.2001 39.3746C38.2001 39.0291 37.9201 38.7491 37.5747 38.7491ZM33.0509 32.1062V33.1997C33.0509 33.5452 33.331 33.8252 33.6764 33.8252H34.8021V38.7491H26.7132V32.1062H33.0509ZM23.2349 31.8646L22.3817 32.3861C22.3267 32.4197 22.2772 32.4616 22.2351 32.5103L21.7912 33.0229L20.6826 32.6614C21.739 32.44 22.612 31.716 23.0407 30.7521L23.2349 31.8646ZM17.0132 30.869C17.4656 31.7883 18.3299 32.4693 19.3637 32.6704L18.2831 33.0229L17.8392 32.5103C17.797 32.4616 17.7475 32.4198 17.6926 32.3862L16.8394 31.8646L17.0132 30.869ZM25.0131 2.40691C25.751 1.6398 26.9259 1.25086 28.505 1.25086C29.8756 1.25086 31.0014 1.8065 31.8513 2.90242C33.7333 5.32926 34.0727 10.0659 32.737 15.2641C31.904 18.5058 32.0366 20.7491 33.1311 21.9318C33.2161 22.0238 33.3039 22.1059 33.3932 22.1793C32.6934 22.324 31.8656 22.3542 31.1093 22.0174C30.0236 21.5339 29.2667 20.368 28.8578 18.5537V11.9758C28.8581 11.7977 28.8314 8.18348 26.32 5.66416C25.7015 5.0439 24.988 4.54847 24.1863 4.1753C24.2439 3.74417 24.4281 3.015 25.0131 2.40691ZM13.4212 8.25619C14.7036 5.82168 16.9236 4.58725 20.0196 4.58725C21.2579 4.58725 22.3531 4.77729 23.303 5.15355C23.3105 5.15656 23.3178 5.15964 23.3254 5.16231C24.7773 5.74346 25.8867 6.763 26.6388 8.21525C27.172 9.24454 27.4115 10.2883 27.5192 11.014C25.2793 9.89933 24.6566 7.88477 24.629 7.79146C24.5664 7.57439 24.3919 7.40794 24.1721 7.35591C23.9524 7.30412 23.7217 7.37434 23.5685 7.54012C20.0161 11.3858 14.3061 11.4724 12.4474 11.3888C12.5384 10.6908 12.7809 9.47187 13.4212 8.25619ZM10.9312 17.8987C10.4824 17.4018 10.402 16.4461 10.4764 15.7173C10.4933 15.5511 10.5567 15.4807 10.6165 15.4337C10.743 15.3343 10.9438 15.2841 11.1426 15.2627V18.0754C11.066 18.0277 10.9955 17.9698 10.9312 17.8987ZM13.7117 22.7358C12.7331 21.2339 12.4385 19.7469 12.3934 19.4908V12.6412C13.1952 12.6802 14.615 12.6878 16.2891 12.4292C19.3253 11.9602 21.9063 10.8004 23.8159 9.05616C24.334 10.0452 25.4467 11.585 27.6069 12.4181V18.6322C27.6069 18.6333 27.6069 18.6344 27.6069 18.6354V19.4917C27.5628 19.7469 27.2788 21.1988 26.3137 22.6973C24.9124 24.8732 22.808 26.0692 20.0583 26.2524H19.9421C17.2096 26.0701 15.1133 24.8872 13.7117 22.7358ZM19.8812 27.5019C19.8946 27.5028 19.9081 27.5032 19.9216 27.5032H20.0789C20.0924 27.5032 20.1059 27.5028 20.1193 27.5019C20.8281 27.4559 21.4785 27.3491 22.0768 27.196V29.3889C22.0767 29.3942 22.0759 29.3995 22.0759 29.4049C22.0759 30.5498 21.1446 31.4812 19.9998 31.4812C18.8551 31.4812 17.9238 30.5498 17.9238 29.4049C17.9238 29.4046 17.9238 29.4044 17.9238 29.4044C17.9238 29.4038 17.9238 29.4034 17.9238 29.4034V27.1959C18.522 27.3491 19.1724 27.4559 19.8812 27.5019ZM7.92752 37.4677C7.92752 30.1144 13.3085 30.0288 13.5398 30.0287H15.8901L15.5339 32.0687C15.4897 32.3217 15.6047 32.576 15.8239 32.71L16.9572 33.4028L17.6094 34.1557C17.7303 34.2953 17.9038 34.3717 18.0822 34.3717C18.1469 34.3717 18.2124 34.3617 18.276 34.3409L20.0371 33.7666L21.7983 34.3409C21.862 34.3617 21.9273 34.3717 21.9921 34.3717C22.1704 34.3717 22.344 34.2953 22.465 34.1557L23.1171 33.4028L24.2504 32.71C24.4695 32.576 24.5845 32.3218 24.5404 32.0687L24.1843 30.0287H26.4652C26.4652 30.0287 26.4656 30.0287 26.466 30.0287C26.5057 30.0287 27.8051 30.0391 29.1378 30.8554H26.0879C25.7425 30.8554 25.4624 31.1353 25.4624 31.4808V38.7491H7.92752V37.4677Z" fill="#AA6A17"/>
<path d="M15.5609 16.2585C15.9731 16.2585 16.3073 15.9243 16.3073 15.5121C16.3073 15.0998 15.9731 14.7656 15.5609 14.7656C15.1486 14.7656 14.8145 15.0998 14.8145 15.5121C14.8145 15.9243 15.1486 16.2585 15.5609 16.2585Z" fill="#AA6A17"/>
<path d="M24.4398 16.2585C24.852 16.2585 25.1862 15.9243 25.1862 15.5121C25.1862 15.0998 24.852 14.7656 24.4398 14.7656C24.0275 14.7656 23.6934 15.0998 23.6934 15.5121C23.6934 15.9243 24.0275 16.2585 24.4398 16.2585Z" fill="#AA6A17"/>
<path d="M19.892 19.5463H20.1088C20.7781 19.5463 21.3226 19.0018 21.3226 18.3325C21.3226 17.987 21.0426 17.707 20.6972 17.707C20.3642 17.707 20.092 17.9672 20.0729 18.2954H19.928C19.9089 17.9672 19.6366 17.707 19.3037 17.707C18.9582 17.707 18.6782 17.987 18.6782 18.3325C18.6781 19.0018 19.2227 19.5463 19.892 19.5463Z" fill="#AA6A17"/>
<path d="M29.0063 35.5243H32.2585C32.6039 35.5243 32.884 35.2444 32.884 34.8989C32.884 34.5534 32.6039 34.2734 32.2585 34.2734H29.0063C28.6609 34.2734 28.3809 34.5534 28.3809 34.8989C28.3809 35.2443 28.6608 35.5243 29.0063 35.5243Z" fill="#AA6A17"/>
<path d="M29.0063 37.6102H32.2585C32.6039 37.6102 32.884 37.3303 32.884 36.9848C32.884 36.6393 32.6039 36.3594 32.2585 36.3594H29.0063C28.6609 36.3594 28.3809 36.6393 28.3809 36.9848C28.3809 37.3303 28.6608 37.6102 29.0063 37.6102Z" fill="#AA6A17"/>
<path d="M23.8773 22.0767C24.0942 21.8078 24.052 21.4142 23.7831 21.1973C23.5142 20.9804 23.1205 21.0225 22.9037 21.2915C22.897 21.2997 22.1458 22.1203 20.1542 22.1203C18.0866 22.1203 17.078 21.2629 17.0277 21.2188C16.7724 20.9893 16.3794 21.0085 16.1476 21.2627C15.9149 21.518 15.9332 21.9136 16.1884 22.1462C16.2433 22.1963 17.5617 23.3712 20.1542 23.3712C22.7581 23.3712 23.7704 22.2092 23.8773 22.0767Z" fill="#AA6A17"/>
</g>
<defs>
<clipPath id="clip0_1722_1012">
<rect width="40" height="40" fill="white"/>
</clipPath>
</defs>
</svg>
