<svg width="32" height="32" viewBox="0 0 32 32" fill="none" xmlns="http://www.w3.org/2000/svg">
<path d="M12.6902 24.6405C12.6902 24.4637 12.547 24.3205 12.3702 24.3205H9.81021C9.76818 24.3205 9.72656 24.3288 9.68774 24.3449C9.64891 24.3609 9.61363 24.3845 9.58391 24.4142C9.5542 24.444 9.53063 24.4792 9.51455 24.5181C9.49847 24.5569 9.4902 24.5985 9.49021 24.6405V28.374H12.6902V24.6405ZM8.21021 29.654V24.6405C8.21021 23.7568 8.92652 23.0405 9.81021 23.0405H12.3702C13.2539 23.0405 13.9702 23.7568 13.9702 24.6405V29.654H8.21021Z" fill="#2E307D"/>
<path d="M17.1702 22.0805C17.1702 21.9037 17.027 21.7605 16.8502 21.7605H14.2902C14.2482 21.7605 14.2065 21.7687 14.1677 21.7848C14.1289 21.8009 14.0936 21.8245 14.0639 21.8542C14.0342 21.8839 14.0106 21.9192 13.9945 21.958C13.9784 21.9968 13.9702 22.0384 13.9702 22.0805V28.3739H17.1702V22.0805ZM12.6902 29.6539V22.0805C12.6902 21.1968 13.4065 20.4805 14.2902 20.4805H16.8502C17.7339 20.4805 18.4502 21.1968 18.4502 22.0805V29.6539H12.6902Z" fill="#2E307D"/>
<path d="M21.65 19.5205C21.65 19.3437 21.5068 19.2005 21.33 19.2005H18.77C18.728 19.2005 18.6863 19.2087 18.6475 19.2248C18.6087 19.2409 18.5734 19.2645 18.5437 19.2942C18.514 19.3239 18.4904 19.3592 18.4743 19.398C18.4582 19.4368 18.45 19.4784 18.45 19.5205V28.3739H21.65V19.5205ZM17.17 29.6539V19.5205C17.17 18.6368 17.8863 17.9205 18.77 17.9205H21.33C22.2137 17.9205 22.93 18.6368 22.93 19.5205V29.6539H17.17ZM14.2642 8.92924L11.7516 3.98493C11.6434 3.77205 11.7981 3.51999 12.037 3.51999H19.9004C20.1393 3.51999 20.2938 3.7719 20.1856 3.98477L17.6732 8.92927C17.5131 9.2444 17.6387 9.62965 17.9539 9.78977C18.269 9.9499 18.6542 9.82424 18.8144 9.50912L21.3267 4.5648C21.8679 3.50049 21.0946 2.23999 19.9004 2.23999H12.037C10.843 2.23999 10.0697 3.50024 10.6105 4.56474L13.1231 9.50915C13.2833 9.82424 13.6685 9.9499 13.9836 9.78974C14.2987 9.62958 14.4244 9.24433 14.2642 8.92924H14.2642Z" fill="#2E307D"/>
<path d="M22.6576 28.4326C25.8388 28.4326 28.4176 25.8538 28.4176 22.6726V21.3241C28.4176 15.1656 23.3761 10.1241 17.2176 10.1241H14.72C8.56146 10.1241 3.51999 15.1656 3.51999 21.3241V22.6726C3.51999 25.8537 6.09893 28.4326 9.27999 28.4326H22.6576ZM22.6576 29.7126H9.27999C5.39202 29.7126 2.23999 26.5606 2.23999 22.6726V21.3241C2.23999 14.4586 7.85452 8.84412 14.72 8.84412H17.2176C24.0831 8.84412 29.6976 14.4586 29.6976 21.3241V22.6726C29.6976 26.5608 26.5458 29.7126 22.6576 29.7126Z" fill="#2E307D"/>
</svg>
